<mxfile host="Electron" agent="Mozilla/5.0 (Windows NT 10.0; Win64; x64) AppleWebKit/537.36 (KHTML, like Gecko) draw.io/26.2.2 Chrome/134.0.6998.178 Electron/35.1.2 Safari/537.36" version="26.2.2">
  <diagram name="Page-1" id="UOZT7wDxDIMD1lYBj2QL">
    <mxGraphModel dx="1889" dy="777" grid="1" gridSize="10" guides="1" tooltips="1" connect="1" arrows="1" fold="1" page="1" pageScale="1" pageWidth="850" pageHeight="1100" background="none" math="0" shadow="0">
      <root>
        <mxCell id="0" />
        <mxCell id="1" parent="0" />
        <mxCell id="tDXwHBrnT2KiwF09zrwK-24" style="edgeStyle=orthogonalEdgeStyle;rounded=0;orthogonalLoop=1;jettySize=auto;html=1;exitX=0.75;exitY=0;exitDx=0;exitDy=0;strokeColor=#0B4D6A;endArrow=ERmany;endFill=0;" edge="1" parent="1" source="p8HNmVIQgG3GiqmU7-hI-10">
          <mxGeometry relative="1" as="geometry">
            <mxPoint x="465" y="290" as="targetPoint" />
          </mxGeometry>
        </mxCell>
        <mxCell id="p8HNmVIQgG3GiqmU7-hI-10" value="Customer" style="swimlane;fontStyle=0;childLayout=stackLayout;horizontal=1;startSize=26;fillColor=#e1d5e7;horizontalStack=0;resizeParent=1;resizeParentMax=0;resizeLast=0;collapsible=1;marginBottom=0;whiteSpace=wrap;html=1;strokeColor=#9673a6;" parent="1" vertex="1">
          <mxGeometry x="360" y="470" width="140" height="270" as="geometry" />
        </mxCell>
        <mxCell id="p8HNmVIQgG3GiqmU7-hI-11" value="&lt;p data-pm-slice=&quot;1 1 []&quot;&gt;customer_id&lt;span style=&quot;text-align: center; text-wrap-mode: nowrap; background-color: transparent; color: light-dark(rgb(0, 0, 0), rgb(255, 255, 255));&quot;&gt;:int,&lt;/span&gt;&lt;span style=&quot;background-color: transparent; color: light-dark(rgb(0, 0, 0), rgb(255, 255, 255));&quot;&gt;&amp;nbsp;(PK)&lt;/span&gt;&lt;/p&gt;&lt;p&gt;name&lt;span style=&quot;background-color: transparent; color: light-dark(rgb(0, 0, 0), rgb(255, 255, 255));&quot;&gt;&amp;nbsp;&lt;/span&gt;&lt;span style=&quot;background-color: transparent; color: light-dark(rgb(0, 0, 0), rgb(255, 255, 255));&quot;&gt;:&lt;/span&gt;&lt;span style=&quot;background-color: transparent; color: light-dark(rgb(0, 0, 0), rgb(255, 255, 255));&quot;&gt;varchar(255)&lt;/span&gt;&lt;/p&gt;&lt;p&gt;email&amp;nbsp;&lt;span style=&quot;background-color: transparent; color: light-dark(rgb(0, 0, 0), rgb(255, 255, 255));&quot;&gt;&amp;nbsp;&lt;/span&gt;&lt;span style=&quot;background-color: transparent; color: light-dark(rgb(0, 0, 0), rgb(255, 255, 255));&quot;&gt;:&lt;/span&gt;&lt;span style=&quot;background-color: transparent; color: light-dark(rgb(0, 0, 0), rgb(255, 255, 255));&quot;&gt;varchar(255)&lt;/span&gt;&lt;span style=&quot;background-color: transparent; color: light-dark(rgb(0, 0, 0), rgb(255, 255, 255));&quot;&gt;(unique)&lt;/span&gt;&lt;/p&gt;&lt;p&gt;password:&lt;span style=&quot;background-color: transparent; color: light-dark(rgb(0, 0, 0), rgb(255, 255, 255));&quot;&gt;varchar2(55)&lt;/span&gt;&lt;/p&gt;&lt;p&gt;address&lt;span style=&quot;background-color: transparent; color: light-dark(rgb(0, 0, 0), rgb(255, 255, 255));&quot;&gt;&amp;nbsp;&lt;/span&gt;&lt;span style=&quot;background-color: transparent; color: light-dark(rgb(0, 0, 0), rgb(255, 255, 255));&quot;&gt;:&lt;/span&gt;&lt;span style=&quot;background-color: transparent; color: light-dark(rgb(0, 0, 0), rgb(255, 255, 255));&quot;&gt;varchar(255)&lt;/span&gt;&lt;/p&gt;&lt;p&gt;phone:&lt;span style=&quot;background-color: transparent; color: light-dark(rgb(0, 0, 0), rgb(255, 255, 255));&quot;&gt;varchar2(55)&lt;/span&gt;&lt;/p&gt;&lt;p&gt;role&lt;span style=&quot;background-color: transparent; color: light-dark(rgb(0, 0, 0), rgb(255, 255, 255));&quot;&gt;&amp;nbsp;&lt;/span&gt;&lt;span style=&quot;background-color: transparent; color: light-dark(rgb(0, 0, 0), rgb(255, 255, 255));&quot;&gt;:&lt;/span&gt;&lt;span style=&quot;background-color: transparent; color: light-dark(rgb(0, 0, 0), rgb(255, 255, 255));&quot;&gt;varchar(255)&lt;/span&gt;&lt;span style=&quot;background-color: transparent; color: light-dark(rgb(0, 0, 0), rgb(255, 255, 255));&quot;&gt;&amp;nbsp;(customer)&lt;/span&gt;&lt;/p&gt;&lt;p&gt;created_at&lt;span style=&quot;background-color: transparent; color: light-dark(rgb(0, 0, 0), rgb(255, 255, 255));&quot;&gt;:timestamp&lt;/span&gt;&lt;/p&gt;" style="text;strokeColor=#9673a6;fillColor=#e1d5e7;align=left;verticalAlign=top;spacingLeft=4;spacingRight=4;overflow=hidden;rotatable=0;points=[[0,0.5],[1,0.5]];portConstraint=eastwest;whiteSpace=wrap;html=1;" parent="p8HNmVIQgG3GiqmU7-hI-10" vertex="1">
          <mxGeometry y="26" width="140" height="244" as="geometry" />
        </mxCell>
        <mxCell id="tDXwHBrnT2KiwF09zrwK-18" style="edgeStyle=orthogonalEdgeStyle;rounded=0;orthogonalLoop=1;jettySize=auto;html=1;exitX=0.25;exitY=1;exitDx=0;exitDy=0;strokeColor=#0B4D6A;endArrow=ERmany;endFill=0;startArrow=ERmany;startFill=0;" edge="1" parent="1" source="p8HNmVIQgG3GiqmU7-hI-15">
          <mxGeometry relative="1" as="geometry">
            <mxPoint x="510" y="910" as="targetPoint" />
            <Array as="points">
              <mxPoint x="590" y="910" />
            </Array>
          </mxGeometry>
        </mxCell>
        <mxCell id="tDXwHBrnT2KiwF09zrwK-35" style="edgeStyle=none;rounded=0;orthogonalLoop=1;jettySize=auto;html=1;exitX=0.016;exitY=0.03;exitDx=0;exitDy=0;strokeColor=#0B4D6A;entryX=1;entryY=1;entryDx=0;entryDy=0;exitPerimeter=0;startArrow=ERmany;startFill=0;endArrow=none;" edge="1" parent="1" source="p8HNmVIQgG3GiqmU7-hI-16" target="pkgMTPQwWQSA9xdt2chN-3">
          <mxGeometry relative="1" as="geometry">
            <Array as="points">
              <mxPoint x="450" y="360" />
              <mxPoint x="450" y="310" />
            </Array>
          </mxGeometry>
        </mxCell>
        <mxCell id="p8HNmVIQgG3GiqmU7-hI-15" value="Books" style="swimlane;fontStyle=1;align=center;verticalAlign=top;childLayout=stackLayout;horizontal=1;startSize=30;horizontalStack=0;resizeParent=1;resizeParentMax=0;resizeLast=0;collapsible=1;marginBottom=0;whiteSpace=wrap;html=1;fillColor=#e1d5e7;strokeColor=#9673a6;" parent="1" vertex="1">
          <mxGeometry x="550" y="321" width="160" height="390" as="geometry" />
        </mxCell>
        <mxCell id="p8HNmVIQgG3GiqmU7-hI-16" value="&lt;p data-pm-slice=&quot;1 1 []&quot;&gt;book_id&amp;nbsp;&lt;span style=&quot;text-align: center; text-wrap-mode: nowrap; background-color: transparent; color: light-dark(rgb(0, 0, 0), rgb(255, 255, 255));&quot;&gt;:int,&lt;/span&gt;&lt;span style=&quot;background-color: transparent; color: light-dark(rgb(0, 0, 0), rgb(255, 255, 255));&quot;&gt;(PK)&lt;/span&gt;&lt;/p&gt;&lt;p&gt;title&lt;span style=&quot;background-color: transparent; color: light-dark(rgb(0, 0, 0), rgb(255, 255, 255));&quot;&gt;&amp;nbsp;&lt;/span&gt;&lt;span style=&quot;background-color: transparent; color: light-dark(rgb(0, 0, 0), rgb(255, 255, 255));&quot;&gt;:&lt;/span&gt;&lt;span style=&quot;background-color: transparent; color: light-dark(rgb(0, 0, 0), rgb(255, 255, 255));&quot;&gt;varchar(255)&lt;/span&gt;&lt;/p&gt;&lt;p&gt;author&lt;span style=&quot;background-color: transparent; color: light-dark(rgb(0, 0, 0), rgb(255, 255, 255));&quot;&gt;&amp;nbsp;&lt;/span&gt;&lt;span style=&quot;background-color: transparent; color: light-dark(rgb(0, 0, 0), rgb(255, 255, 255));&quot;&gt;:&lt;/span&gt;&lt;span style=&quot;background-color: transparent; color: light-dark(rgb(0, 0, 0), rgb(255, 255, 255));&quot;&gt;varchar(255)&lt;/span&gt;&lt;/p&gt;&lt;p&gt;isbn&amp;nbsp;&lt;span style=&quot;background-color: transparent; color: light-dark(rgb(0, 0, 0), rgb(255, 255, 255));&quot;&gt;&amp;nbsp;&lt;/span&gt;&lt;span style=&quot;background-color: transparent; color: light-dark(rgb(0, 0, 0), rgb(255, 255, 255));&quot;&gt;:&lt;/span&gt;&lt;span style=&quot;background-color: transparent; color: light-dark(rgb(0, 0, 0), rgb(255, 255, 255));&quot;&gt;varchar(255),&lt;/span&gt;&lt;span style=&quot;background-color: transparent; color: light-dark(rgb(0, 0, 0), rgb(255, 255, 255));&quot;&gt;(unique)&lt;/span&gt;&lt;/p&gt;&lt;p&gt;genre&lt;span style=&quot;background-color: transparent; color: light-dark(rgb(0, 0, 0), rgb(255, 255, 255));&quot;&gt;&amp;nbsp;&lt;/span&gt;&lt;span style=&quot;background-color: transparent; color: light-dark(rgb(0, 0, 0), rgb(255, 255, 255));&quot;&gt;:&lt;/span&gt;&lt;span style=&quot;background-color: transparent; color: light-dark(rgb(0, 0, 0), rgb(255, 255, 255));&quot;&gt;varchar(255)&lt;/span&gt;&lt;/p&gt;&lt;p&gt;price&lt;span style=&quot;text-align: center; text-wrap-mode: nowrap; background-color: transparent; color: light-dark(rgb(0, 0, 0), rgb(255, 255, 255));&quot;&gt;:int&lt;/span&gt;&lt;/p&gt;&lt;p&gt;description&lt;span style=&quot;background-color: transparent; color: light-dark(rgb(0, 0, 0), rgb(255, 255, 255));&quot;&gt;&amp;nbsp;&lt;/span&gt;&lt;span style=&quot;background-color: transparent; color: light-dark(rgb(0, 0, 0), rgb(255, 255, 255));&quot;&gt;:&lt;/span&gt;&lt;span style=&quot;background-color: transparent; color: light-dark(rgb(0, 0, 0), rgb(255, 255, 255));&quot;&gt;varchar(255)&lt;/span&gt;&lt;/p&gt;&lt;p&gt;cover_image_url&lt;span style=&quot;background-color: transparent; color: light-dark(rgb(0, 0, 0), rgb(255, 255, 255));&quot;&gt;&amp;nbsp;&lt;/span&gt;&lt;span style=&quot;background-color: transparent; color: light-dark(rgb(0, 0, 0), rgb(255, 255, 255));&quot;&gt;:&lt;/span&gt;&lt;span style=&quot;background-color: transparent; color: light-dark(rgb(0, 0, 0), rgb(255, 255, 255));&quot;&gt;varchar(255)&lt;/span&gt;&lt;/p&gt;&lt;p&gt;rating&amp;nbsp;&lt;span style=&quot;background-color: transparent; color: light-dark(rgb(0, 0, 0), rgb(255, 255, 255));&quot;&gt;(1-5)&lt;/span&gt;&lt;span style=&quot;background-color: transparent; color: light-dark(rgb(0, 0, 0), rgb(255, 255, 255)); text-wrap-mode: nowrap; text-align: center;&quot;&gt;:int&lt;/span&gt;&lt;/p&gt;&lt;p&gt;created_at:timestamp&lt;/p&gt;" style="text;strokeColor=#9673a6;fillColor=#e1d5e7;align=left;verticalAlign=top;spacingLeft=4;spacingRight=4;overflow=hidden;rotatable=0;points=[[0,0.5],[1,0.5]];portConstraint=eastwest;whiteSpace=wrap;html=1;" parent="p8HNmVIQgG3GiqmU7-hI-15" vertex="1">
          <mxGeometry y="30" width="160" height="300" as="geometry" />
        </mxCell>
        <mxCell id="p8HNmVIQgG3GiqmU7-hI-17" value="" style="line;strokeWidth=1;fillColor=#e1d5e7;align=left;verticalAlign=middle;spacingTop=-1;spacingLeft=3;spacingRight=3;rotatable=0;labelPosition=right;points=[];portConstraint=eastwest;strokeColor=#9673a6;" parent="p8HNmVIQgG3GiqmU7-hI-15" vertex="1">
          <mxGeometry y="330" width="160" height="8" as="geometry" />
        </mxCell>
        <mxCell id="p8HNmVIQgG3GiqmU7-hI-18" value="+ method(type): type" style="text;strokeColor=#9673a6;fillColor=#e1d5e7;align=left;verticalAlign=top;spacingLeft=4;spacingRight=4;overflow=hidden;rotatable=0;points=[[0,0.5],[1,0.5]];portConstraint=eastwest;whiteSpace=wrap;html=1;" parent="p8HNmVIQgG3GiqmU7-hI-15" vertex="1">
          <mxGeometry y="338" width="160" height="52" as="geometry" />
        </mxCell>
        <mxCell id="p8HNmVIQgG3GiqmU7-hI-29" value="Review" style="swimlane;fontStyle=0;childLayout=stackLayout;horizontal=1;startSize=26;fillColor=#e1d5e7;horizontalStack=0;resizeParent=1;resizeParentMax=0;resizeLast=0;collapsible=1;marginBottom=0;whiteSpace=wrap;html=1;strokeColor=#9673a6;" parent="1" vertex="1">
          <mxGeometry x="20" y="456" width="140" height="270" as="geometry" />
        </mxCell>
        <mxCell id="p8HNmVIQgG3GiqmU7-hI-30" value="&lt;p data-pm-slice=&quot;1 1 []&quot;&gt;review_id&amp;nbsp;&lt;span style=&quot;text-align: center; text-wrap-mode: nowrap; background-color: transparent; color: light-dark(rgb(0, 0, 0), rgb(255, 255, 255));&quot;&gt;:int,&lt;/span&gt;&lt;span style=&quot;background-color: transparent; color: light-dark(rgb(0, 0, 0), rgb(255, 255, 255));&quot;&gt;(PK)&lt;/span&gt;&lt;/p&gt;&lt;p&gt;&lt;span style=&quot;background-color: transparent; color: light-dark(rgb(0, 0, 0), rgb(255, 255, 255));&quot;&gt;customer_id&lt;/span&gt;&lt;span style=&quot;background-color: transparent; color: light-dark(rgb(0, 0, 0), rgb(255, 255, 255));&quot;&gt;&amp;nbsp;&lt;/span&gt;&lt;span style=&quot;text-align: center; text-wrap-mode: nowrap; background-color: transparent; color: light-dark(rgb(0, 0, 0), rgb(255, 255, 255));&quot;&gt;:int,&lt;/span&gt;&lt;span style=&quot;background-color: transparent; color: light-dark(rgb(0, 0, 0), rgb(255, 255, 255));&quot;&gt;&amp;nbsp;(FK)&lt;/span&gt;&lt;/p&gt;&lt;p&gt;book_id&lt;span style=&quot;text-align: center; text-wrap-mode: nowrap; background-color: transparent; color: light-dark(rgb(0, 0, 0), rgb(255, 255, 255));&quot;&gt;:int,&lt;/span&gt;&lt;span style=&quot;background-color: transparent; color: light-dark(rgb(0, 0, 0), rgb(255, 255, 255));&quot;&gt;&amp;nbsp;(FK)&lt;/span&gt;&lt;/p&gt;&lt;p&gt;rating (1-5)&lt;span style=&quot;text-align: center; text-wrap-mode: nowrap; background-color: transparent; color: light-dark(rgb(0, 0, 0), rgb(255, 255, 255));&quot;&gt;:int&lt;/span&gt;&lt;/p&gt;&lt;p&gt;comment :&lt;span style=&quot;background-color: transparent; color: light-dark(rgb(0, 0, 0), rgb(255, 255, 255));&quot;&gt;varchar(255)&lt;/span&gt;&lt;/p&gt;&lt;p&gt;reviewed_at&lt;span style=&quot;background-color: transparent; color: light-dark(rgb(0, 0, 0), rgb(255, 255, 255));&quot;&gt;:timestamp&lt;/span&gt;&lt;/p&gt;" style="text;strokeColor=#9673a6;fillColor=#e1d5e7;align=left;verticalAlign=top;spacingLeft=4;spacingRight=4;overflow=hidden;rotatable=0;points=[[0,0.5],[1,0.5]];portConstraint=eastwest;whiteSpace=wrap;html=1;" parent="p8HNmVIQgG3GiqmU7-hI-29" vertex="1">
          <mxGeometry y="26" width="140" height="244" as="geometry" />
        </mxCell>
        <mxCell id="p8HNmVIQgG3GiqmU7-hI-31" value="Warehouse" style="swimlane;fontStyle=0;childLayout=stackLayout;horizontal=1;startSize=26;fillColor=#e1d5e7;horizontalStack=0;resizeParent=1;resizeParentMax=0;resizeLast=0;collapsible=1;marginBottom=0;whiteSpace=wrap;html=1;strokeColor=#9673a6;" parent="1" vertex="1">
          <mxGeometry x="190" y="460" width="140" height="160" as="geometry" />
        </mxCell>
        <mxCell id="p8HNmVIQgG3GiqmU7-hI-32" value="&lt;p data-pm-slice=&quot;1 1 []&quot;&gt;warehouse_id&lt;span style=&quot;text-align: center; text-wrap-mode: nowrap; background-color: transparent; color: light-dark(rgb(0, 0, 0), rgb(255, 255, 255));&quot;&gt;:int,&lt;/span&gt;&lt;span style=&quot;background-color: transparent; color: light-dark(rgb(0, 0, 0), rgb(255, 255, 255));&quot;&gt;&amp;nbsp;(PK)&lt;/span&gt;&lt;/p&gt;&lt;p&gt;location&lt;span style=&quot;background-color: transparent; color: light-dark(rgb(0, 0, 0), rgb(255, 255, 255));&quot;&gt;&amp;nbsp;&lt;/span&gt;&lt;span style=&quot;background-color: transparent; color: light-dark(rgb(0, 0, 0), rgb(255, 255, 255));&quot;&gt;:&lt;/span&gt;&lt;span style=&quot;background-color: transparent; color: light-dark(rgb(0, 0, 0), rgb(255, 255, 255));&quot;&gt;varchar(255)&lt;/span&gt;&lt;/p&gt;&lt;p&gt;contact_number:&lt;/p&gt;&lt;p&gt;varchar2(55)&lt;/p&gt;" style="text;strokeColor=#9673a6;fillColor=#e1d5e7;align=left;verticalAlign=top;spacingLeft=4;spacingRight=4;overflow=hidden;rotatable=0;points=[[0,0.5],[1,0.5]];portConstraint=eastwest;whiteSpace=wrap;html=1;" parent="p8HNmVIQgG3GiqmU7-hI-31" vertex="1">
          <mxGeometry y="26" width="140" height="134" as="geometry" />
        </mxCell>
        <mxCell id="p8HNmVIQgG3GiqmU7-hI-34" value="Discount" style="swimlane;fontStyle=0;childLayout=stackLayout;horizontal=1;startSize=26;fillColor=#e1d5e7;horizontalStack=0;resizeParent=1;resizeParentMax=0;resizeLast=0;collapsible=1;marginBottom=0;whiteSpace=wrap;html=1;strokeColor=#9673a6;" parent="1" vertex="1">
          <mxGeometry x="-30" y="758" width="190" height="270" as="geometry" />
        </mxCell>
        <mxCell id="p8HNmVIQgG3GiqmU7-hI-35" value="&lt;p data-pm-slice=&quot;1 1 []&quot;&gt;discount_id&lt;span style=&quot;background-color: transparent; color: light-dark(rgb(0, 0, 0), rgb(255, 255, 255));&quot;&gt;:&lt;/span&gt;&lt;span style=&quot;text-align: center; text-wrap-mode: nowrap; background-color: transparent; color: light-dark(rgb(0, 0, 0), rgb(255, 255, 255));&quot;&gt;:int&lt;/span&gt;&lt;span style=&quot;background-color: transparent; color: light-dark(rgb(0, 0, 0), rgb(255, 255, 255));&quot;&gt;&amp;nbsp;(PK)&lt;/span&gt;&lt;/p&gt;&lt;p&gt;code:varchar2(50),unique&lt;/p&gt;&lt;p&gt;description&lt;span style=&quot;background-color: transparent; color: light-dark(rgb(0, 0, 0), rgb(255, 255, 255));&quot;&gt;:varchar2(255)&lt;/span&gt;&lt;/p&gt;&lt;div&gt;&lt;span style=&quot;background-color: transparent; color: light-dark(rgb(0, 0, 0), rgb(255, 255, 255));&quot;&gt;discount_percentage:int&lt;/span&gt;&lt;/div&gt;&lt;p&gt;valid_from:date&lt;/p&gt;&lt;p&gt;valid_to:&lt;span style=&quot;background-color: transparent; color: light-dark(rgb(0, 0, 0), rgb(255, 255, 255));&quot;&gt;date&lt;/span&gt;&lt;/p&gt;&lt;p&gt;applies_to_book_id:int, (nullable FK)&lt;/p&gt;" style="text;strokeColor=#9673a6;fillColor=#e1d5e7;align=left;verticalAlign=top;spacingLeft=4;spacingRight=4;overflow=hidden;rotatable=0;points=[[0,0.5],[1,0.5]];portConstraint=eastwest;whiteSpace=wrap;html=1;" parent="p8HNmVIQgG3GiqmU7-hI-34" vertex="1">
          <mxGeometry y="26" width="190" height="244" as="geometry" />
        </mxCell>
        <mxCell id="p8HNmVIQgG3GiqmU7-hI-36" value="Inventory" style="swimlane;fontStyle=0;childLayout=stackLayout;horizontal=1;startSize=26;fillColor=#e1d5e7;horizontalStack=0;resizeParent=1;resizeParentMax=0;resizeLast=0;collapsible=1;marginBottom=0;whiteSpace=wrap;html=1;strokeColor=#9673a6;" parent="1" vertex="1">
          <mxGeometry x="170" y="830" width="140" height="170" as="geometry" />
        </mxCell>
        <mxCell id="p8HNmVIQgG3GiqmU7-hI-37" value="&lt;p data-pm-slice=&quot;1 1 []&quot;&gt;inventory_id&lt;span style=&quot;background-color: transparent; color: light-dark(rgb(0, 0, 0), rgb(255, 255, 255));&quot;&gt;:int,&lt;/span&gt;&lt;span style=&quot;background-color: transparent; color: light-dark(rgb(0, 0, 0), rgb(255, 255, 255));&quot;&gt;&amp;nbsp;(PK)&lt;/span&gt;&lt;/p&gt;&lt;p&gt;book_id&lt;span style=&quot;background-color: transparent; color: light-dark(rgb(0, 0, 0), rgb(255, 255, 255));&quot;&gt;:int,&lt;/span&gt;&lt;span style=&quot;background-color: transparent; color: light-dark(rgb(0, 0, 0), rgb(255, 255, 255));&quot;&gt;&amp;nbsp;(FK)&lt;/span&gt;&lt;/p&gt;&lt;p&gt;warehouse_id&lt;span style=&quot;background-color: transparent; color: light-dark(rgb(0, 0, 0), rgb(255, 255, 255));&quot;&gt;:int,&lt;/span&gt;&lt;span style=&quot;background-color: transparent; color: light-dark(rgb(0, 0, 0), rgb(255, 255, 255));&quot;&gt;&amp;nbsp;(FK)&lt;/span&gt;&lt;/p&gt;&lt;p&gt;stock_quantity&lt;span style=&quot;background-color: transparent; color: light-dark(rgb(0, 0, 0), rgb(255, 255, 255));&quot;&gt;:int&lt;/span&gt;&lt;/p&gt;" style="text;strokeColor=#9673a6;fillColor=#e1d5e7;align=left;verticalAlign=top;spacingLeft=4;spacingRight=4;overflow=hidden;rotatable=0;points=[[0,0.5],[1,0.5]];portConstraint=eastwest;whiteSpace=wrap;html=1;" parent="p8HNmVIQgG3GiqmU7-hI-36" vertex="1">
          <mxGeometry y="26" width="140" height="144" as="geometry" />
        </mxCell>
        <mxCell id="p8HNmVIQgG3GiqmU7-hI-42" value="catagory&amp;nbsp;" style="swimlane;fontStyle=1;align=center;verticalAlign=top;childLayout=stackLayout;horizontal=1;startSize=26;horizontalStack=0;resizeParent=1;resizeParentMax=0;resizeLast=0;collapsible=1;marginBottom=0;whiteSpace=wrap;html=1;fillColor=#e1d5e7;strokeColor=#9673a6;" parent="1" vertex="1">
          <mxGeometry x="350" y="860" width="160" height="238" as="geometry" />
        </mxCell>
        <mxCell id="p8HNmVIQgG3GiqmU7-hI-43" value="&lt;code data-end=&quot;847&quot; data-start=&quot;834&quot;&gt;category_id&lt;/code&gt;&lt;span style=&quot;text-align: center; text-wrap-mode: nowrap;&quot;&gt;:int&lt;/span&gt;&amp;nbsp;(PK)&lt;div&gt;&lt;br&gt;&lt;div&gt;&lt;span style=&quot;background-color: transparent; color: light-dark(rgb(0, 0, 0), rgb(255, 255, 255));&quot;&gt;category_name:&lt;/span&gt;&lt;span style=&quot;background-color: transparent; color: light-dark(rgb(0, 0, 0), rgb(255, 255, 255));&quot;&gt;varchar2(255)&lt;/span&gt;&lt;/div&gt;&lt;/div&gt;" style="text;strokeColor=#9673a6;fillColor=#e1d5e7;align=left;verticalAlign=top;spacingLeft=4;spacingRight=4;overflow=hidden;rotatable=0;points=[[0,0.5],[1,0.5]];portConstraint=eastwest;whiteSpace=wrap;html=1;" parent="p8HNmVIQgG3GiqmU7-hI-42" vertex="1">
          <mxGeometry y="26" width="160" height="64" as="geometry" />
        </mxCell>
        <mxCell id="p8HNmVIQgG3GiqmU7-hI-44" value="" style="line;strokeWidth=1;fillColor=#e1d5e7;align=left;verticalAlign=middle;spacingTop=-1;spacingLeft=3;spacingRight=3;rotatable=0;labelPosition=right;points=[];portConstraint=eastwest;strokeColor=#9673a6;" parent="p8HNmVIQgG3GiqmU7-hI-42" vertex="1">
          <mxGeometry y="90" width="160" height="8" as="geometry" />
        </mxCell>
        <mxCell id="p8HNmVIQgG3GiqmU7-hI-45" value="+ method(type): type" style="text;strokeColor=#9673a6;fillColor=#e1d5e7;align=left;verticalAlign=top;spacingLeft=4;spacingRight=4;overflow=hidden;rotatable=0;points=[[0,0.5],[1,0.5]];portConstraint=eastwest;whiteSpace=wrap;html=1;" parent="p8HNmVIQgG3GiqmU7-hI-42" vertex="1">
          <mxGeometry y="98" width="160" height="140" as="geometry" />
        </mxCell>
        <mxCell id="p8HNmVIQgG3GiqmU7-hI-46" value="Cart" style="swimlane;fontStyle=1;align=center;verticalAlign=top;childLayout=stackLayout;horizontal=1;startSize=26;horizontalStack=0;resizeParent=1;resizeParentMax=0;resizeLast=0;collapsible=1;marginBottom=0;whiteSpace=wrap;html=1;fillColor=#e1d5e7;strokeColor=#9673a6;" parent="1" vertex="1">
          <mxGeometry x="560" y="950" width="170" height="218" as="geometry" />
        </mxCell>
        <mxCell id="p8HNmVIQgG3GiqmU7-hI-47" value="&lt;p data-pm-slice=&quot;1 1 []&quot;&gt;cart_id&amp;nbsp;&lt;span style=&quot;text-align: center; text-wrap-mode: nowrap;&quot;&gt;:int,&lt;/span&gt;(PK)&#x9;&lt;/p&gt;&lt;p&gt;user_id&amp;nbsp;&lt;span style=&quot;text-align: center; text-wrap-mode: nowrap;&quot;&gt;:int,&lt;/span&gt;(FK)&#x9;&lt;/p&gt;&lt;p&gt;status&#x9;:&lt;span style=&quot;background-color: transparent; color: light-dark(rgb(0, 0, 0), rgb(255, 255, 255));&quot;&gt;varchar2(255)&lt;/span&gt;&lt;/p&gt;&lt;p&gt;created_at :TIMESTAMP&lt;/p&gt;&lt;p&gt;updated_at TIMESTAMP&lt;/p&gt;" style="text;strokeColor=#9673a6;fillColor=#e1d5e7;align=left;verticalAlign=top;spacingLeft=4;spacingRight=4;overflow=hidden;rotatable=0;points=[[0,0.5],[1,0.5]];portConstraint=eastwest;whiteSpace=wrap;html=1;" parent="p8HNmVIQgG3GiqmU7-hI-46" vertex="1">
          <mxGeometry y="26" width="170" height="114" as="geometry" />
        </mxCell>
        <mxCell id="p8HNmVIQgG3GiqmU7-hI-48" value="" style="line;strokeWidth=1;fillColor=#e1d5e7;align=left;verticalAlign=middle;spacingTop=-1;spacingLeft=3;spacingRight=3;rotatable=0;labelPosition=right;points=[];portConstraint=eastwest;strokeColor=#9673a6;" parent="p8HNmVIQgG3GiqmU7-hI-46" vertex="1">
          <mxGeometry y="140" width="170" height="8" as="geometry" />
        </mxCell>
        <mxCell id="p8HNmVIQgG3GiqmU7-hI-49" value="+ method(type): type" style="text;strokeColor=#9673a6;fillColor=#e1d5e7;align=left;verticalAlign=top;spacingLeft=4;spacingRight=4;overflow=hidden;rotatable=0;points=[[0,0.5],[1,0.5]];portConstraint=eastwest;whiteSpace=wrap;html=1;" parent="p8HNmVIQgG3GiqmU7-hI-46" vertex="1">
          <mxGeometry y="148" width="170" height="70" as="geometry" />
        </mxCell>
        <mxCell id="p8HNmVIQgG3GiqmU7-hI-50" value="Cart Item" style="swimlane;fontStyle=1;align=center;verticalAlign=top;childLayout=stackLayout;horizontal=1;startSize=26;horizontalStack=0;resizeParent=1;resizeParentMax=0;resizeLast=0;collapsible=1;marginBottom=0;whiteSpace=wrap;html=1;fillColor=#e1d5e7;strokeColor=#9673a6;" parent="1" vertex="1">
          <mxGeometry x="680" y="720" width="160" height="220" as="geometry" />
        </mxCell>
        <mxCell id="p8HNmVIQgG3GiqmU7-hI-51" value="&lt;p data-pm-slice=&quot;1 1 []&quot;&gt;cart_item_id (PK)&lt;/p&gt;&lt;p&gt;&lt;span style=&quot;background-color: transparent; color: light-dark(rgb(0, 0, 0), rgb(255, 255, 255));&quot;&gt;customer_id&lt;/span&gt;&lt;span style=&quot;background-color: transparent; color: light-dark(rgb(0, 0, 0), rgb(255, 255, 255));&quot;&gt;&amp;nbsp;&lt;/span&gt;&amp;nbsp;(FK → User)`&lt;/p&gt;&lt;p&gt;book_id (FK → Book)`&lt;/p&gt;&lt;p&gt;quantity&lt;/p&gt;&lt;p&gt;added_at&lt;/p&gt;" style="text;strokeColor=#9673a6;fillColor=#e1d5e7;align=left;verticalAlign=top;spacingLeft=4;spacingRight=4;overflow=hidden;rotatable=0;points=[[0,0.5],[1,0.5]];portConstraint=eastwest;whiteSpace=wrap;html=1;" parent="p8HNmVIQgG3GiqmU7-hI-50" vertex="1">
          <mxGeometry y="26" width="160" height="154" as="geometry" />
        </mxCell>
        <mxCell id="p8HNmVIQgG3GiqmU7-hI-52" value="" style="line;strokeWidth=1;fillColor=#e1d5e7;align=left;verticalAlign=middle;spacingTop=-1;spacingLeft=3;spacingRight=3;rotatable=0;labelPosition=right;points=[];portConstraint=eastwest;strokeColor=#9673a6;" parent="p8HNmVIQgG3GiqmU7-hI-50" vertex="1">
          <mxGeometry y="180" width="160" height="8" as="geometry" />
        </mxCell>
        <mxCell id="p8HNmVIQgG3GiqmU7-hI-53" value="+ method(type): type" style="text;strokeColor=#9673a6;fillColor=#e1d5e7;align=left;verticalAlign=top;spacingLeft=4;spacingRight=4;overflow=hidden;rotatable=0;points=[[0,0.5],[1,0.5]];portConstraint=eastwest;whiteSpace=wrap;html=1;" parent="p8HNmVIQgG3GiqmU7-hI-50" vertex="1">
          <mxGeometry y="188" width="160" height="32" as="geometry" />
        </mxCell>
        <mxCell id="p8HNmVIQgG3GiqmU7-hI-54" value="OrderItem" style="swimlane;fontStyle=1;align=center;verticalAlign=top;childLayout=stackLayout;horizontal=1;startSize=30;horizontalStack=0;resizeParent=1;resizeParentMax=0;resizeLast=0;collapsible=1;marginBottom=0;whiteSpace=wrap;html=1;fillColor=#e1d5e7;strokeColor=#9673a6;" parent="1" vertex="1">
          <mxGeometry x="-80" y="1190" width="160" height="240" as="geometry" />
        </mxCell>
        <mxCell id="p8HNmVIQgG3GiqmU7-hI-55" value="&lt;p data-pm-slice=&quot;1 1 []&quot;&gt;order_item_id,:int (PK)&lt;/p&gt;&lt;p&gt;order_id:int, (FK)&lt;/p&gt;&lt;p&gt;book_id:int (FK)&lt;/p&gt;&lt;p&gt;quantity:int&lt;/p&gt;&lt;p&gt;price_at_purchase:int&lt;/p&gt;" style="text;strokeColor=#9673a6;fillColor=#e1d5e7;align=left;verticalAlign=top;spacingLeft=4;spacingRight=4;overflow=hidden;rotatable=0;points=[[0,0.5],[1,0.5]];portConstraint=eastwest;whiteSpace=wrap;html=1;" parent="p8HNmVIQgG3GiqmU7-hI-54" vertex="1">
          <mxGeometry y="30" width="160" height="150" as="geometry" />
        </mxCell>
        <mxCell id="p8HNmVIQgG3GiqmU7-hI-56" value="" style="line;strokeWidth=1;fillColor=#e1d5e7;align=left;verticalAlign=middle;spacingTop=-1;spacingLeft=3;spacingRight=3;rotatable=0;labelPosition=right;points=[];portConstraint=eastwest;strokeColor=#9673a6;" parent="p8HNmVIQgG3GiqmU7-hI-54" vertex="1">
          <mxGeometry y="180" width="160" height="8" as="geometry" />
        </mxCell>
        <mxCell id="p8HNmVIQgG3GiqmU7-hI-57" value="+ method(type): type" style="text;strokeColor=#9673a6;fillColor=#e1d5e7;align=left;verticalAlign=top;spacingLeft=4;spacingRight=4;overflow=hidden;rotatable=0;points=[[0,0.5],[1,0.5]];portConstraint=eastwest;whiteSpace=wrap;html=1;" parent="p8HNmVIQgG3GiqmU7-hI-54" vertex="1">
          <mxGeometry y="188" width="160" height="52" as="geometry" />
        </mxCell>
        <mxCell id="tDXwHBrnT2KiwF09zrwK-21" style="edgeStyle=orthogonalEdgeStyle;rounded=0;orthogonalLoop=1;jettySize=auto;html=1;exitX=0;exitY=0.25;exitDx=0;exitDy=0;strokeColor=#0B4D6A;endArrow=ERmany;endFill=0;" edge="1" parent="1" source="p8HNmVIQgG3GiqmU7-hI-58">
          <mxGeometry relative="1" as="geometry">
            <mxPoint x="80" y="1297" as="targetPoint" />
          </mxGeometry>
        </mxCell>
        <mxCell id="tDXwHBrnT2KiwF09zrwK-26" style="edgeStyle=orthogonalEdgeStyle;rounded=0;orthogonalLoop=1;jettySize=auto;html=1;exitX=0.75;exitY=0;exitDx=0;exitDy=0;strokeColor=#0B4D6A;entryX=0.609;entryY=0.001;entryDx=0;entryDy=0;entryPerimeter=0;endArrow=ERmany;endFill=0;" edge="1" parent="1" source="p8HNmVIQgG3GiqmU7-hI-58" target="p8HNmVIQgG3GiqmU7-hI-66">
          <mxGeometry relative="1" as="geometry">
            <mxPoint x="760" y="1180" as="targetPoint" />
            <Array as="points">
              <mxPoint x="350" y="1180" />
              <mxPoint x="737" y="1180" />
            </Array>
          </mxGeometry>
        </mxCell>
        <mxCell id="p8HNmVIQgG3GiqmU7-hI-58" value="Order" style="swimlane;fontStyle=1;align=center;verticalAlign=top;childLayout=stackLayout;horizontal=1;startSize=30;horizontalStack=0;resizeParent=1;resizeParentMax=0;resizeLast=0;collapsible=1;marginBottom=0;whiteSpace=wrap;html=1;fillColor=#e1d5e7;strokeColor=#9673a6;" parent="1" vertex="1">
          <mxGeometry x="230" y="1210" width="160" height="348" as="geometry" />
        </mxCell>
        <mxCell id="p8HNmVIQgG3GiqmU7-hI-59" value="&lt;p data-pm-slice=&quot;1 1 []&quot;&gt;order_id (PK)&lt;/p&gt;&lt;p data-pm-slice=&quot;1 1 []&quot;&gt;&lt;br&gt;customer_id&amp;nbsp;(FK)&lt;/p&gt;&lt;p data-pm-slice=&quot;1 1 []&quot;&gt;&lt;br&gt;order_date&lt;/p&gt;&lt;p data-pm-slice=&quot;1 1 []&quot;&gt;&lt;br&gt;total_price&lt;/p&gt;&lt;p data-pm-slice=&quot;1 1 []&quot;&gt;&lt;br&gt;shipping_address&lt;/p&gt;&lt;p data-pm-slice=&quot;1 1 []&quot;&gt;&lt;br&gt;order_status&lt;/p&gt;" style="text;strokeColor=#9673a6;fillColor=#e1d5e7;align=left;verticalAlign=top;spacingLeft=4;spacingRight=4;overflow=hidden;rotatable=0;points=[[0,0.5],[1,0.5]];portConstraint=eastwest;whiteSpace=wrap;html=1;" parent="p8HNmVIQgG3GiqmU7-hI-58" vertex="1">
          <mxGeometry y="30" width="160" height="240" as="geometry" />
        </mxCell>
        <mxCell id="p8HNmVIQgG3GiqmU7-hI-60" value="" style="line;strokeWidth=1;fillColor=#e1d5e7;align=left;verticalAlign=middle;spacingTop=-1;spacingLeft=3;spacingRight=3;rotatable=0;labelPosition=right;points=[];portConstraint=eastwest;strokeColor=#9673a6;" parent="p8HNmVIQgG3GiqmU7-hI-58" vertex="1">
          <mxGeometry y="270" width="160" height="8" as="geometry" />
        </mxCell>
        <mxCell id="p8HNmVIQgG3GiqmU7-hI-61" value="+ method(type): type" style="text;strokeColor=#9673a6;fillColor=#e1d5e7;align=left;verticalAlign=top;spacingLeft=4;spacingRight=4;overflow=hidden;rotatable=0;points=[[0,0.5],[1,0.5]];portConstraint=eastwest;whiteSpace=wrap;html=1;" parent="p8HNmVIQgG3GiqmU7-hI-58" vertex="1">
          <mxGeometry y="278" width="160" height="70" as="geometry" />
        </mxCell>
        <mxCell id="p8HNmVIQgG3GiqmU7-hI-62" value="&lt;p data-pm-slice=&quot;1 1 []&quot;&gt;&lt;/p&gt;&lt;p&gt;🚚 Shipping&lt;/p&gt;" style="swimlane;fontStyle=1;align=center;verticalAlign=top;childLayout=stackLayout;horizontal=1;startSize=40;horizontalStack=0;resizeParent=1;resizeParentMax=0;resizeLast=0;collapsible=1;marginBottom=0;whiteSpace=wrap;html=1;fillColor=#e1d5e7;strokeColor=#9673a6;" parent="1" vertex="1">
          <mxGeometry x="440" y="1220" width="160" height="400" as="geometry" />
        </mxCell>
        <mxCell id="p8HNmVIQgG3GiqmU7-hI-63" value="&lt;p data-pm-slice=&quot;1 1 []&quot;&gt;shipping_id (PK)&lt;/p&gt;&lt;p&gt;order_id (FK)&lt;/p&gt;&lt;p&gt;shipping_method&lt;/p&gt;&lt;p&gt;tracking_number&lt;/p&gt;&lt;p&gt;shipping_cost&lt;/p&gt;&lt;p&gt;delivery_estimate&lt;/p&gt;&lt;p&gt;delivery_status&lt;/p&gt;" style="text;strokeColor=#9673a6;fillColor=#e1d5e7;align=left;verticalAlign=top;spacingLeft=4;spacingRight=4;overflow=hidden;rotatable=0;points=[[0,0.5],[1,0.5]];portConstraint=eastwest;whiteSpace=wrap;html=1;" parent="p8HNmVIQgG3GiqmU7-hI-62" vertex="1">
          <mxGeometry y="40" width="160" height="300" as="geometry" />
        </mxCell>
        <mxCell id="p8HNmVIQgG3GiqmU7-hI-64" value="" style="line;strokeWidth=1;fillColor=#e1d5e7;align=left;verticalAlign=middle;spacingTop=-1;spacingLeft=3;spacingRight=3;rotatable=0;labelPosition=right;points=[];portConstraint=eastwest;strokeColor=#9673a6;" parent="p8HNmVIQgG3GiqmU7-hI-62" vertex="1">
          <mxGeometry y="340" width="160" height="8" as="geometry" />
        </mxCell>
        <mxCell id="p8HNmVIQgG3GiqmU7-hI-65" value="+ method(type): type" style="text;strokeColor=#9673a6;fillColor=#e1d5e7;align=left;verticalAlign=top;spacingLeft=4;spacingRight=4;overflow=hidden;rotatable=0;points=[[0,0.5],[1,0.5]];portConstraint=eastwest;whiteSpace=wrap;html=1;" parent="p8HNmVIQgG3GiqmU7-hI-62" vertex="1">
          <mxGeometry y="348" width="160" height="52" as="geometry" />
        </mxCell>
        <mxCell id="p8HNmVIQgG3GiqmU7-hI-66" value="payment" style="swimlane;fontStyle=1;align=center;verticalAlign=top;childLayout=stackLayout;horizontal=1;startSize=30;horizontalStack=0;resizeParent=1;resizeParentMax=0;resizeLast=0;collapsible=1;marginBottom=0;whiteSpace=wrap;html=1;fillColor=#e1d5e7;strokeColor=#9673a6;" parent="1" vertex="1">
          <mxGeometry x="640" y="1200" width="160" height="390" as="geometry" />
        </mxCell>
        <mxCell id="p8HNmVIQgG3GiqmU7-hI-67" value="&lt;p data-pm-slice=&quot;1 1 []&quot;&gt;payment_id (PK)&lt;/p&gt;&lt;p&gt;order_id (FK)&lt;/p&gt;&lt;p&gt;payment_method (PayPal, Stripe, etc.)&lt;/p&gt;&lt;p&gt;payment_status&lt;/p&gt;&lt;p&gt;transaction_date&lt;/p&gt;&lt;p&gt;amount&lt;/p&gt;" style="text;strokeColor=#9673a6;fillColor=#e1d5e7;align=left;verticalAlign=top;spacingLeft=4;spacingRight=4;overflow=hidden;rotatable=0;points=[[0,0.5],[1,0.5]];portConstraint=eastwest;whiteSpace=wrap;html=1;" parent="p8HNmVIQgG3GiqmU7-hI-66" vertex="1">
          <mxGeometry y="30" width="160" height="300" as="geometry" />
        </mxCell>
        <mxCell id="p8HNmVIQgG3GiqmU7-hI-68" value="" style="line;strokeWidth=1;fillColor=#e1d5e7;align=left;verticalAlign=middle;spacingTop=-1;spacingLeft=3;spacingRight=3;rotatable=0;labelPosition=right;points=[];portConstraint=eastwest;strokeColor=#9673a6;" parent="p8HNmVIQgG3GiqmU7-hI-66" vertex="1">
          <mxGeometry y="330" width="160" height="8" as="geometry" />
        </mxCell>
        <mxCell id="p8HNmVIQgG3GiqmU7-hI-69" value="+ method(type): type" style="text;strokeColor=#9673a6;fillColor=#e1d5e7;align=left;verticalAlign=top;spacingLeft=4;spacingRight=4;overflow=hidden;rotatable=0;points=[[0,0.5],[1,0.5]];portConstraint=eastwest;whiteSpace=wrap;html=1;" parent="p8HNmVIQgG3GiqmU7-hI-66" vertex="1">
          <mxGeometry y="338" width="160" height="52" as="geometry" />
        </mxCell>
        <mxCell id="tDXwHBrnT2KiwF09zrwK-34" style="edgeStyle=none;rounded=0;orthogonalLoop=1;jettySize=auto;html=1;exitX=0;exitY=0.25;exitDx=0;exitDy=0;strokeColor=#0B4D6A;endArrow=ERmany;endFill=0;" edge="1" parent="1" source="pkgMTPQwWQSA9xdt2chN-3">
          <mxGeometry relative="1" as="geometry">
            <mxPoint x="-30" y="810" as="targetPoint" />
            <Array as="points">
              <mxPoint x="-40" y="100" />
              <mxPoint x="-40" y="430" />
              <mxPoint x="-40" y="810" />
            </Array>
          </mxGeometry>
        </mxCell>
        <mxCell id="pkgMTPQwWQSA9xdt2chN-3" value="Admin" style="swimlane;fontStyle=0;childLayout=stackLayout;horizontal=1;startSize=26;fillColor=#e1d5e7;horizontalStack=0;resizeParent=1;resizeParentMax=0;resizeLast=0;collapsible=1;marginBottom=0;whiteSpace=wrap;html=1;strokeColor=#9673a6;" parent="1" vertex="1">
          <mxGeometry x="240" y="30" width="160" height="280" as="geometry" />
        </mxCell>
        <mxCell id="pkgMTPQwWQSA9xdt2chN-4" value="&lt;p data-pm-slice=&quot;1 1 []&quot;&gt;log_id (PK)&lt;/p&gt;&lt;p&gt;admin_user_id (FK from customer)&lt;/p&gt;&lt;p&gt;action_type&lt;span style=&quot;background-color: transparent; color: light-dark(rgb(0, 0, 0), rgb(255, 255, 255));&quot;&gt;&amp;nbsp;&lt;/span&gt;&lt;span style=&quot;background-color: transparent; color: light-dark(rgb(0, 0, 0), rgb(255, 255, 255));&quot;&gt;:&lt;/span&gt;&lt;span style=&quot;background-color: transparent; color: light-dark(rgb(0, 0, 0), rgb(255, 255, 255));&quot;&gt;varchar(255)&lt;/span&gt;&lt;/p&gt;&lt;p&gt;target_id (book_id or order_id )&lt;/p&gt;&lt;p&gt;&lt;br&gt;&lt;/p&gt;" style="text;strokeColor=#9673a6;fillColor=#e1d5e7;align=left;verticalAlign=top;spacingLeft=4;spacingRight=4;overflow=hidden;rotatable=0;points=[[0,0.5],[1,0.5]];portConstraint=eastwest;whiteSpace=wrap;html=1;" parent="pkgMTPQwWQSA9xdt2chN-3" vertex="1">
          <mxGeometry y="26" width="160" height="254" as="geometry" />
        </mxCell>
        <mxCell id="pkgMTPQwWQSA9xdt2chN-7" value="feedback" style="swimlane;fontStyle=0;childLayout=stackLayout;horizontal=1;startSize=26;fillColor=#e1d5e7;horizontalStack=0;resizeParent=1;resizeParentMax=0;resizeLast=0;collapsible=1;marginBottom=0;whiteSpace=wrap;html=1;strokeColor=#9673a6;" parent="1" vertex="1">
          <mxGeometry x="425" y="150" width="140" height="140" as="geometry" />
        </mxCell>
        <mxCell id="pkgMTPQwWQSA9xdt2chN-8" value="&lt;p data-pm-slice=&quot;1 1 []&quot;&gt;feedback_id:int, (PK)&lt;/p&gt;&lt;p&gt;&lt;span style=&quot;background-color: transparent; color: light-dark(rgb(0, 0, 0), rgb(255, 255, 255));&quot;&gt;customer_id:int&lt;/span&gt;&lt;span style=&quot;background-color: transparent; color: light-dark(rgb(0, 0, 0), rgb(255, 255, 255));&quot;&gt;&amp;nbsp;&lt;/span&gt;&lt;span style=&quot;background-color: transparent; color: light-dark(rgb(0, 0, 0), rgb(255, 255, 255));&quot;&gt;message&lt;/span&gt;&lt;/p&gt;&lt;p&gt;submitted_at&lt;span style=&quot;background-color: transparent; color: light-dark(rgb(0, 0, 0), rgb(255, 255, 255));&quot;&gt;:timestamp&lt;/span&gt;&lt;/p&gt;" style="text;strokeColor=#9673a6;fillColor=#e1d5e7;align=left;verticalAlign=top;spacingLeft=4;spacingRight=4;overflow=hidden;rotatable=0;points=[[0,0.5],[1,0.5]];portConstraint=eastwest;whiteSpace=wrap;html=1;" parent="pkgMTPQwWQSA9xdt2chN-7" vertex="1">
          <mxGeometry y="26" width="140" height="114" as="geometry" />
        </mxCell>
        <mxCell id="pkgMTPQwWQSA9xdt2chN-12" value="Wishlist" style="swimlane;fontStyle=0;childLayout=stackLayout;horizontal=1;startSize=26;fillColor=#e1d5e7;horizontalStack=0;resizeParent=1;resizeParentMax=0;resizeLast=0;collapsible=1;marginBottom=0;whiteSpace=wrap;html=1;strokeColor=#9673a6;" parent="1" vertex="1">
          <mxGeometry x="60" y="120" width="140" height="230" as="geometry" />
        </mxCell>
        <mxCell id="pkgMTPQwWQSA9xdt2chN-13" value="&lt;p data-pm-slice=&quot;1 1 []&quot;&gt;wishlist_id:int, (PK)&lt;/p&gt;&lt;p&gt;user_id:int (FK)&lt;/p&gt;&lt;p&gt;book_id:int (FK)&lt;/p&gt;&lt;p&gt;added_at&lt;span style=&quot;background-color: transparent; color: light-dark(rgb(0, 0, 0), rgb(255, 255, 255));&quot;&gt;:timestamp&lt;/span&gt;&lt;/p&gt;" style="text;strokeColor=#9673a6;fillColor=#e1d5e7;align=left;verticalAlign=top;spacingLeft=4;spacingRight=4;overflow=hidden;rotatable=0;points=[[0,0.5],[1,0.5]];portConstraint=eastwest;whiteSpace=wrap;html=1;" parent="pkgMTPQwWQSA9xdt2chN-12" vertex="1">
          <mxGeometry y="26" width="140" height="204" as="geometry" />
        </mxCell>
        <mxCell id="tDXwHBrnT2KiwF09zrwK-13" value="" style="edgeStyle=orthogonalEdgeStyle;fontSize=12;html=1;endArrow=ERoneToMany;rounded=0;strokeColor=#0B4D6A;exitX=0;exitY=0;exitDx=0;exitDy=0;entryX=0.925;entryY=-0.002;entryDx=0;entryDy=0;entryPerimeter=0;" edge="1" parent="1" source="p8HNmVIQgG3GiqmU7-hI-10" target="p8HNmVIQgG3GiqmU7-hI-29">
          <mxGeometry width="100" height="100" relative="1" as="geometry">
            <mxPoint x="369.52" y="379.99999999999983" as="sourcePoint" />
            <mxPoint x="150" y="450" as="targetPoint" />
            <Array as="points">
              <mxPoint x="360" y="380" />
              <mxPoint x="150" y="380" />
            </Array>
          </mxGeometry>
        </mxCell>
        <mxCell id="tDXwHBrnT2KiwF09zrwK-14" style="edgeStyle=orthogonalEdgeStyle;rounded=0;orthogonalLoop=1;jettySize=auto;html=1;exitX=0.25;exitY=0;exitDx=0;exitDy=0;entryX=0.993;entryY=0.853;entryDx=0;entryDy=0;entryPerimeter=0;strokeColor=#0B4D6A;endArrow=ERmany;endFill=0;" edge="1" parent="1" source="p8HNmVIQgG3GiqmU7-hI-10" target="pkgMTPQwWQSA9xdt2chN-13">
          <mxGeometry relative="1" as="geometry" />
        </mxCell>
        <mxCell id="tDXwHBrnT2KiwF09zrwK-15" style="edgeStyle=orthogonalEdgeStyle;rounded=0;orthogonalLoop=1;jettySize=auto;html=1;exitX=0.011;exitY=0.924;exitDx=0;exitDy=0;strokeColor=#0B4D6A;exitPerimeter=0;endArrow=ERmany;endFill=0;" edge="1" parent="1" source="p8HNmVIQgG3GiqmU7-hI-11">
          <mxGeometry relative="1" as="geometry">
            <mxPoint x="330" y="1210" as="targetPoint" />
            <Array as="points">
              <mxPoint x="330" y="722" />
            </Array>
          </mxGeometry>
        </mxCell>
        <mxCell id="tDXwHBrnT2KiwF09zrwK-17" style="edgeStyle=orthogonalEdgeStyle;rounded=0;orthogonalLoop=1;jettySize=auto;html=1;exitX=1;exitY=0.25;exitDx=0;exitDy=0;strokeColor=#0B4D6A;endArrow=ERmany;endFill=0;" edge="1" parent="1" source="p8HNmVIQgG3GiqmU7-hI-15">
          <mxGeometry relative="1" as="geometry">
            <mxPoint x="731" y="300" as="targetPoint" />
            <Array as="points">
              <mxPoint x="731" y="419" />
            </Array>
          </mxGeometry>
        </mxCell>
        <mxCell id="tDXwHBrnT2KiwF09zrwK-25" style="edgeStyle=orthogonalEdgeStyle;rounded=0;orthogonalLoop=1;jettySize=auto;html=1;exitX=0.5;exitY=1;exitDx=0;exitDy=0;entryX=0.707;entryY=0;entryDx=0;entryDy=0;entryPerimeter=0;strokeColor=#0B4D6A;endArrow=ERmany;endFill=0;" edge="1" parent="1" source="p8HNmVIQgG3GiqmU7-hI-15" target="p8HNmVIQgG3GiqmU7-hI-36">
          <mxGeometry relative="1" as="geometry" />
        </mxCell>
        <mxCell id="tDXwHBrnT2KiwF09zrwK-28" style="edgeStyle=orthogonalEdgeStyle;rounded=0;orthogonalLoop=1;jettySize=auto;html=1;exitX=1;exitY=0.5;exitDx=0;exitDy=0;strokeColor=#0B4D6A;endArrow=ERmany;endFill=0;" edge="1" parent="1" source="p8HNmVIQgG3GiqmU7-hI-59">
          <mxGeometry relative="1" as="geometry">
            <mxPoint x="440" y="1360" as="targetPoint" />
          </mxGeometry>
        </mxCell>
        <mxCell id="tDXwHBrnT2KiwF09zrwK-30" style="edgeStyle=orthogonalEdgeStyle;rounded=0;orthogonalLoop=1;jettySize=auto;html=1;strokeColor=#0B4D6A;endArrow=none;endFill=0;entryX=0.25;entryY=0;entryDx=0;entryDy=0;startArrow=ERmany;startFill=0;exitX=0.688;exitY=0.981;exitDx=0;exitDy=0;exitPerimeter=0;" edge="1" parent="1" source="p8HNmVIQgG3GiqmU7-hI-18" target="p8HNmVIQgG3GiqmU7-hI-54">
          <mxGeometry relative="1" as="geometry">
            <mxPoint x="660" y="740" as="sourcePoint" />
            <mxPoint x="90" y="1190" as="targetPoint" />
            <Array as="points">
              <mxPoint x="660" y="920" />
              <mxPoint x="526" y="920" />
              <mxPoint x="526" y="1158" />
              <mxPoint x="30" y="1158" />
            </Array>
          </mxGeometry>
        </mxCell>
        <mxCell id="tDXwHBrnT2KiwF09zrwK-31" value="" style="fontSize=12;html=1;endArrow=none;rounded=0;strokeColor=#0B4D6A;exitX=0.25;exitY=0;exitDx=0;exitDy=0;entryX=0.107;entryY=1;entryDx=0;entryDy=0;entryPerimeter=0;startFill=0;startArrow=ERmany;" edge="1" parent="1" source="p8HNmVIQgG3GiqmU7-hI-36" target="p8HNmVIQgG3GiqmU7-hI-32">
          <mxGeometry width="100" height="100" relative="1" as="geometry">
            <mxPoint x="220" y="760" as="sourcePoint" />
            <mxPoint x="280" y="630" as="targetPoint" />
            <Array as="points" />
          </mxGeometry>
        </mxCell>
        <mxCell id="tDXwHBrnT2KiwF09zrwK-32" style="edgeStyle=none;rounded=0;orthogonalLoop=1;jettySize=auto;html=1;exitX=0;exitY=0.25;exitDx=0;exitDy=0;entryX=0.126;entryY=-0.004;entryDx=0;entryDy=0;entryPerimeter=0;strokeColor=#0B4D6A;endArrow=ERmany;endFill=0;" edge="1" parent="1" source="p8HNmVIQgG3GiqmU7-hI-15" target="p8HNmVIQgG3GiqmU7-hI-34">
          <mxGeometry relative="1" as="geometry">
            <Array as="points">
              <mxPoint x="-10" y="419" />
            </Array>
          </mxGeometry>
        </mxCell>
        <mxCell id="tDXwHBrnT2KiwF09zrwK-33" style="edgeStyle=none;rounded=0;orthogonalLoop=1;jettySize=auto;html=1;exitX=1;exitY=0.25;exitDx=0;exitDy=0;entryX=0.464;entryY=0;entryDx=0;entryDy=0;entryPerimeter=0;strokeColor=#0B4D6A;endArrow=ERmany;endFill=0;" edge="1" parent="1" source="pkgMTPQwWQSA9xdt2chN-3" target="pkgMTPQwWQSA9xdt2chN-7">
          <mxGeometry relative="1" as="geometry">
            <Array as="points">
              <mxPoint x="490" y="100" />
            </Array>
          </mxGeometry>
        </mxCell>
        <mxCell id="tDXwHBrnT2KiwF09zrwK-36" style="edgeStyle=none;rounded=0;orthogonalLoop=1;jettySize=auto;html=1;exitX=0.672;exitY=1.01;exitDx=0;exitDy=0;strokeColor=#0B4D6A;exitPerimeter=0;endArrow=ERmany;endFill=0;" edge="1" parent="1" source="pkgMTPQwWQSA9xdt2chN-4">
          <mxGeometry relative="1" as="geometry">
            <mxPoint x="301" y="830" as="targetPoint" />
            <Array as="points">
              <mxPoint x="350" y="660" />
              <mxPoint x="301" y="660" />
            </Array>
          </mxGeometry>
        </mxCell>
        <mxCell id="tDXwHBrnT2KiwF09zrwK-37" style="edgeStyle=none;rounded=0;orthogonalLoop=1;jettySize=auto;html=1;exitX=1;exitY=0.5;exitDx=0;exitDy=0;entryX=0.625;entryY=1;entryDx=0;entryDy=0;entryPerimeter=0;strokeColor=#0B4D6A;" edge="1" parent="1" source="p8HNmVIQgG3GiqmU7-hI-46" target="p8HNmVIQgG3GiqmU7-hI-53">
          <mxGeometry relative="1" as="geometry">
            <Array as="points">
              <mxPoint x="780" y="1059" />
            </Array>
          </mxGeometry>
        </mxCell>
      </root>
    </mxGraphModel>
  </diagram>
</mxfile>
